<?xml version="1.0" encoding="utf-8"?>
<!-- Generator: Adobe Illustrator 22.1.0, SVG Export Plug-In . SVG Version: 6.00 Build 0)  -->
<svg version="1.1" id="Layer_1" xmlns="http://www.w3.org/2000/svg" xmlns:xlink="http://www.w3.org/1999/xlink" x="0px" y="0px"
	 viewBox="0 0 648 648" style="enable-background:new 0 0 648 648;" xml:space="preserve">
<metadata><?xpacket begin="﻿" id="W5M0MpCehiHzreSzNTczkc9d"?>
<x:xmpmeta xmlns:x="adobe:ns:meta/" x:xmptk="Adobe XMP Core 5.6-c143 79.161356, 2017/09/07-01:11:22        ">
   <rdf:RDF xmlns:rdf="http://www.w3.org/1999/02/22-rdf-syntax-ns#">
      <rdf:Description rdf:about=""/>
   </rdf:RDF>
</x:xmpmeta>
                                                                                                    
                                                                                                    
                                                                                                    
                                                                                                    
                                                                                                    
                                                                                                    
                                                                                                    
                                                                                                    
                                                                                                    
                                                                                                    
                                                                                                    
                                                                                                    
                                                                                                    
                                                                                                    
                                                                                                    
                                                                                                    
                                                                                                    
                                                                                                    
                                                                                                    
                                                                                                    
                           
<?xpacket end="w"?></metadata>
<style type="text/css">
	.st0{fill-rule:evenodd;clip-rule:evenodd;fill:#231F20;}
</style>
<path class="st0" d="M301.7,17.4c6.9,0,13.9,0,20.9,0c14,3.4,29.8,10.9,34.5,23.5c0.9,6.3,1.7,12.6,2.6,18.9
	c2.4,8.2,8.4,12.7,8.5,22.8c-1.4,1.4-1.1,2.4-3.3,3.3c-1.8,1.1-5.4,0.4-7.2,0c-7-1.8-9.7-2.8-13.7-7.2c-0.7-1.1-1.3-2.2-2-3.3
	c-2.3-1.6-6-1.2-9.8-1.3c-1.4,1.4-3.8,1.8-5.2,3.3c-3.4,3.5-2.7,10.5-7.8,12.4c-0.5,0.2-1.9,0.1-3.9,0c-3.2-5.2-6.3-10.1-10.4-14.3
	c-5.9-0.1-8.1,1.5-7.8,7.8c4,4.3,1.3,9.9,3.3,16.9c2.9,10.7,7.5,12,3.9,26.1c-2.8,1.8-3.8,3.7-8.5,3.9c-5.1-8.1-6.3-15.2-3.3-26.1
	c1.1-3.9-1-6.9-3.3-7.8c-0.7-0.5-0.6-0.4-2-0.7c-2.5,1.8-5.3,1.4-6.5,4.6c-6.7,8.6-0.3,21,2,30c2.1,8.4-0.7,17.4,1.3,26.7
	c2.1,10,1.3,22.8,1.3,34.5c0,4.3,0,8.7,0,13c-1.3,6.5-2.6,13-3.9,19.5c-2.7,6.5-8.9,14.9-13,20.9c-4.3,6.2-15.8,8.5-16.3,18.2
	c8.3,4.8,20.4,1.3,31.3,3.9c5.6,1.3,12.4,1.7,17.6,3.9c2.8,1.2,6.7,3.7,9.8,4.6c3.9,0.2,7.8,0.4,11.7,0.7c8.4,1.9,17.5,1.4,24.8,4.6
	c16.7,7.3,29.7,21,44.3,30.6c21,13.8,42.4,26.7,63.9,39.7c8.4,5.1,30.9,19,46.9,15c11.1-2.8,28.7-12.8,34.5-20.9
	c5.8-8,12.4-24.9,24.8-25.4c0.7,0.5,0.2,0.2,1.3,0.7c0.9,2.7,2.6,5.7,3.3,8.5c1.3,5.3-1,10.5-2,13.7c-3.4,11.8-6.4,22.6-12.4,31.9
	c-2.7,4.2-7,8.1-9.1,13c-4,9.5-2.9,21.7-8.5,29.3c-1.2,1.7-3.7,2.5-5.2,3.9c-3.2,0.3-7.8,1.6-11.7,0.7c-13.8-3.5-29-18.7-46.3-15.6
	c-2,3.2-3.5,7.7-5.9,11.1c-1.2,1.7-3.7,2.5-5.2,3.9c-3.2,0.3-8.4,1.8-12.4,0.7c-6-1.7-10.5-6.5-15-9.8c-4.4-3.2-9.1-4.7-13.7-7.8
	c-4.2-2.8-8.7-7-13-9.8c-14.5-9.1-27.6-18.7-41.7-28c-7.6-5-15.3-12.5-24.1-16.3c-9.8-4.2-20.4-1.3-31.9-3.9
	c-10-2.3-29.2-6.1-39.7-2c-0.4,1-0.5,1.6-0.7,3.3c-1.6,5,6.2,9.6,8.5,13c6.2,9.1,8.6,18.3,20.9,21.5c8.8,2.3,31,1.7,33.9,8.5
	c1.3,1.5,2.2,7.1,1.3,10.4c-1.3,4.8-3.3,11.1-4.6,16.9c-1,4.6,0.2,11.2-0.7,15c-1.2,5.7,0.7,13,0,16.9c-1.6,9.7-1.7,20.9-3.9,29.3
	c-1.6,6.2-0.1,13.8-3.9,17.6c-6.7,6.6-22.1,0-31.3,3.9c-10.4,4.5-18.4,31.3-22.8,43c-3.2,8.4-3.2,17.5-6.5,26.7
	c-2.4,6.7-6.8,13.6-8.5,20.9c-1.3,5.8,2.2,15.3,6.5,16.9c7.8,5.5,36.1,4.7,39.1,13c0.5,0.8,0.5,1.1,0.7,2.6
	c-2.5,1.6-4.7,4.3-7.8,5.2c-4,1.2-6.3-0.4-9.8,0c-8.4,1.1-36.5,1.3-45.6-0.7c-3.7,0-7.4,0-11.1,0c-3.7-0.8-9.4-1.1-13-2
	c-9.6-2.1-17.4,2.4-25.4,0.7c-7.2-11.1-2.2-35.1,2.6-46.3c3.4-8,4.6-15.5,7.8-24.1c2.6-7,7.5-14,10.4-20.9c0.2-1.5,0.4-3,0.7-4.6
	c4.6-11.8,14.4-24.5,15-40.4c-11.9-7-43.2-4.4-50.2-15c-4.4-6.7-0.3-18.5,1.3-25.4c0.4-5.9,0.9-11.7,1.3-17.6
	c2.2-8.9,10.7-38,7.2-47.6c-2.8-7.6-11.5-13.7-17.6-18.2c-3.7-3.7-7.4-7.4-11.1-11.1c-9-6.8-18-13.9-27.4-20.2
	c-8.8-5.9-21.7-9.5-25.4-20.2c-5-14.4,3.4-48.3,6.5-60.6c1.5-5.9,0.9-10.6,2.6-16.3c2.4-7.9,6.5-16.1,9.1-24.1
	c1.7-5.1,1.3-10.3,3.3-15c4-9.5,10.3-19.3,14.3-28.7c2.5-5.9,3.3-11.5,6.5-16.9c7.4-12.4,20.8-28.6,32.6-36.5
	c14-9.3,32.2-15.2,49.5-20.9c6.7-2.2,15.4-1.7,20.9-5.2c7.3-4.7,18.6-18.4,22.2-26.7c3.3-7.8-2-13.9-0.7-21.5
	c6.9-4.3,12.7-9.4,18.2-15c1.3-1.7,2.6-3.5,3.9-5.2C291.6,19.3,297.9,19.8,301.7,17.4z"/>
</svg>
