<?xml version="1.0" encoding="utf-8"?>
<!-- Generator: Adobe Illustrator 22.1.0, SVG Export Plug-In . SVG Version: 6.00 Build 0)  -->
<svg version="1.1" id="Layer_1" xmlns="http://www.w3.org/2000/svg" xmlns:xlink="http://www.w3.org/1999/xlink" x="0px" y="0px"
	 viewBox="0 0 648 648" style="enable-background:new 0 0 648 648;" xml:space="preserve">
<metadata><?xpacket begin="﻿" id="W5M0MpCehiHzreSzNTczkc9d"?>
<x:xmpmeta xmlns:x="adobe:ns:meta/" x:xmptk="Adobe XMP Core 5.6-c143 79.161356, 2017/09/07-01:11:22        ">
   <rdf:RDF xmlns:rdf="http://www.w3.org/1999/02/22-rdf-syntax-ns#">
      <rdf:Description rdf:about=""/>
   </rdf:RDF>
</x:xmpmeta>
                                                                                                    
                                                                                                    
                                                                                                    
                                                                                                    
                                                                                                    
                                                                                                    
                                                                                                    
                                                                                                    
                                                                                                    
                                                                                                    
                                                                                                    
                                                                                                    
                                                                                                    
                                                                                                    
                                                                                                    
                                                                                                    
                                                                                                    
                                                                                                    
                                                                                                    
                                                                                                    
                           
<?xpacket end="w"?></metadata>
<style type="text/css">
	.st0{fill-rule:evenodd;clip-rule:evenodd;fill:#231F20;}
</style>
<path class="st0" d="M427.3,17.5c0.6,0,0.9,0.1,1.3,0.2c0.3,0.6,0.8,1.4,1,2.1c0,1.1,0,2.2,0,3.4c0.4,1.8,0.2,7.3-0.3,9.1
	c-0.5,1.7-1.8,3.2-2.2,5.1c-0.1,2.2-0.1,4.5-0.2,6.7c-0.4,1.3-3.2,4.9-2.4,6.2c0.2,0.8,0.8,1.4,1.8,1.4c0.6,0.3,2.8-0.2,4-0.2
	c2.6,0,5.3,0.2,7.2,1c0.1,0.3,0.1,0.4,0.2,0.8c-1.7,0.9-2.6,2.5-4.8,3c-2.1,0-4.2,0-6.2,0c-2.3,0.5-4.6,0.5-6.2,1.6
	c-0.3,0.3-0.5,0.6-0.8,1c-0.8,0.5-1.5,0.7-2.2,1.3c-0.2,0.3-0.4,0.6-0.6,1c-1.5,1.2-3.1,2.2-4.5,3.5c-1.9,1.9-3.5,4.1-5.8,5.8
	c-0.6,0.6-1.2,1.3-1.8,1.9c-2,1.4-4.3,2.2-6.2,3.7c-1.3,1-2.5,2.4-3.5,3.7c-0.9,1.2-2.5,2.4-3.7,3.4c-2,1.5-3.9,4.2-5.9,5.8
	c-1.2,0.9-2.3,1.5-3.5,2.4c-1.5,1.1-2.2,3.1-3.7,4.2c-1.2,0.9-2.6,1.8-3.5,3c-1.9,2.6-4,4.8-5.9,7.4c-1.5,2-4.1,3.3-5.6,5.3
	c-2.3,3.1-5.2,5.8-8,8.5c0,3.2,1,4.6,1.4,6.9c0.2,1-1,3.3-1.3,4.3c-0.5,2.1,0,5.6,0,8.5c0,1.6,0,3.2,0,4.8c0.2,1,1.4,3.6,1.1,4.6
	c-0.4,1.4-1.6,3.4-1.3,5.3c0.4,1.9,0.2,5.5,0.2,8.2c0,5.2,0,10.5,0,15.7c0,6.5,0,12.9,0,19.4c0,2.9-0.6,6.4,0.3,8.5
	c0.4,0.8,1,1,1.8,1.4c2,1.2,4,1,6.7,1.6c0.6,0,1.2,0,1.8,0c1.3,0.3,2.7,0.5,3.7,1.1c0.4,0.2,0.8,0.8,1.3,1c1.4,0.3,2.8,0.5,4.2,0.8
	c1.1,0.4,1.9,1.4,2.9,1.9c1.2,0.6,2.4,0.2,3.8,0.6c1.3,0.4,2.1,1.4,3.2,1.9c1.3,0.6,2.4,0.6,3.7,1.1c0.8,0.4,1.4,1.2,2.2,1.6
	c1,0.5,1.8,0.5,2.9,1c1,0.4,1.8,1.4,2.7,1.9c1.6,1,3.3,1.5,4.8,2.6c1.6,1.1,2.6,3,4.2,4.2c1.4,1.1,2.8,2.1,4.2,3.2
	c1.7,1.4,2.9,3,4.2,4.8c1.3,1.8,3.4,3,4.6,4.8c0.6,0.9,0.7,2.1,1.3,3c0.6,1,1.6,2.2,2.1,3.4c0.5,1.3,0.6,2.4,1.1,3.7
	c0.4,1,1.1,2,1.4,3c1,3.3,0.3,9.2,0.3,13.1c0,8.8,0,17.5,0,26.3c0,25.1,0,50.3,0,75.4c0,9.4,0,18.8,0,28.2c0,3.2,0.6,10.3-0.3,12.6
	c-0.4,1.2-1.6,1.9-2.2,2.9c-1,1.6-1.9,4.2-3.4,5.3c-1,0.8-2.1,1-3.4,1.6c-1.5,0.8-2.5,2-4.5,2.6c-1,0.1-1.9,0.1-2.9,0.2
	c-8.1,1.8-15.3-2.7-18.2-6.7c-0.7-1-1.9-1.8-2.4-3c-0.9-2.2-0.1-5-0.6-7.5c-0.4-1.9-0.5-9.5,0-11.8c0.4-1.7,0-4.3-0.3-5.8
	c0-3,0-6,0-9c0-18.6,0-37.1,0-55.7c0-4.2,0-8.4,0-12.6c0-2.3,0.1-5.2-0.2-6.7c0.1-1.5,0.2-3.1,0.3-4.6c-0.3-1.1-1.4-1.7-1.8-2.6
	c-0.5-1.1-0.5-3.1-0.8-4.3c-0.3-0.1-0.6-0.2-1.1-0.2c-0.2,0.2-0.3,0.2-0.6,0.3c-1,1.8-2,3.4-2.6,5.6c-0.1,1.3-0.1,2.7-0.2,4
	c-0.2,1.1-0.1,3.4,0,4.6c0,3.9,0,7.8,0,11.7c0,16.2,0,32.4,0,48.7c-0.1,23.4-0.1,46.7-0.2,70.1c0,6.6,0,13.1,0,19.7
	c0.1,2.4,0.4,5.3,0,7.5c0.1,0.5,0.1,1,0.2,1.4c-0.3,2,0.2,4.6-0.2,6.6c0,2.1,0,4.2,0,6.2c0,5.2,0,10.5,0,15.7c0,1.8,0.4,5,0.2,6.4
	c-0.5,3.3,0.4,7.2-0.2,10.6c-0.2,0.9,0.3,1.7,0.2,2.6c-0.2,1.4-0.2,3.4,0,4.8c0.2,0.9-0.2,1.6-0.2,2.6c0,0.5,0.2,1.3,0.2,1.9
	c-0.3,1.8-0.3,4.4,0,6.2c0.1,0.9-0.3,1.6-0.2,2.6c0.4,2.5,0,4.9,0,8.2c0,16.9,0,33.8,0,50.7c0,4.1,0,8.2,0,12.3
	c0,2.2,0.1,5.1-0.2,6.6c-0.2,1.2,0.2,2.6-0.2,3.7c-0.3,1-1.2,1.8-1.8,2.6c-1.1,1.6-1.3,3.3-2.6,4.8c-0.7,0.8-1.8,1.3-2.4,2.1
	c-2.5,3.1-5.7,4.5-10.2,5.6c-1.2,0.1-2.5,0.2-3.7,0.3c-1.7,0.4-4.5,1.3-6.7,0.8c-1.3-0.3-2.7-0.8-3.8-1.1c-1.6-0.4-3.2-0.2-4.6-0.8
	c-1-0.4-1.9-1.5-2.9-1.9c-0.8-0.4-1.7-0.3-2.6-0.6c-1-0.4-2.4-1.8-3-2.7c-0.7-1-0.7-2.2-1.3-3.4c-0.4-0.7-1.2-1.3-1.6-1.9
	c-0.5-0.8-0.5-1.6-1-2.6c-0.8-1.9-2-3.6-2.6-5.9c-0.1-3.7-0.1-7.5-0.2-11.2c0-7.6,0-15.3,0-22.9c0-31.3,0-62.6,0-94
	c0-14.2,0-28.4,0-42.6c0-2.9,0-5.9,0-8.8c-0.3-1-0.9-1.2-1.4-1.9c-1.2-1.5-2.2-3-5-2.4c-0.3,0.5-0.9,0.9-1.1,1.4
	c-0.4,0.9-0.2,1.8-0.6,2.6c-0.5,0.9-1.6,1.7-1.9,2.7c0,14.2,0,28.4,0,42.6c0,37.9,0,75.8,0,113.7c0,5.7,0,11.3,0,17
	c0,2.7,0.4,6.5-0.3,8.6c-0.4,1.4-1.5,2.5-2.2,3.7c-0.2,0.5-0.3,1-0.5,1.4c-1.8,3-7.2,7.7-10.6,9.1c-2,0.3-3.9,0.6-5.9,1
	c-3.4,0.9-6.5,0.9-9.9,0c-2.6-0.6-5.4-0.1-7.4-1.3c-0.7-0.4-1.3-1.2-1.9-1.6c-0.5-0.2-1-0.3-1.4-0.5c-0.8-0.4-3.5-2.3-4-3
	c-0.8-1-1.1-2-1.8-3.2c-0.3-0.6-1.2-1.2-1.6-1.8c-0.9-1.4-0.9-3.4-1.6-5c-0.5-1-1.4-2.1-1.8-3.2c-0.1-1.1-0.1-2.2-0.2-3.4
	c-0.8-3.4-0.2-8.8-0.2-12.6c0-11.6,0-23.3,0-34.9c0-48.4,0-96.9,0-145.4c-0.8-3.7-0.3-8.9-0.3-13.1c0-8.4,0-16.8,0-25.1
	c0-20,0-39.9,0-59.9c0-6.6,0-13.1,0-19.7c-0.7-2.2-3.6-1.2-4.2,0.5c-0.7,0.9,0.1,2.1-0.2,3.4c-0.2,0.9-0.3,6.1,0,7.7
	c0.3,1.6-0.2,3.6,0,5.3c0.3,1.8,0.3,4.3,0,6.1c0.1,0.4,0.1,0.9,0.2,1.3c-0.3,1.6,0.1,3.7-0.2,5.3c0.1,0.5,0.1,1,0.2,1.4
	c-0.3,2,0.2,4.6-0.2,6.6c0.1,0.5,0.1,1,0.2,1.4c-0.3,2,0.2,4.3,0,6.4c-0.1,1.4-0.3,3.1-0.2,4.6c0.1,1.2,0.1,2.5,0,3.7
	c0.1,0.4,0.1,0.9,0.2,1.3c-0.2,1.6,0.2,3.4,0,5.1c-0.3,2.7-0.1,5.7-0.2,8.5c0,1.2,0.4,2.4,0.2,3.7c-0.5,2.9,0.1,6.4-0.2,9.4
	c-0.1,0.9,0.3,1.6,0.2,2.6c-0.3,1.5,0,3.3,0,5c0,0.7-0.3,1.5-0.2,2.2c0.1,0.5,0.3,1.4,0.2,2.1c-0.3,1.7,0.1,3.7-0.2,5.4
	c0.1,0.4,0.1,0.9,0.2,1.3c-0.6,3.6-0.1,10.8-0.5,15.5c-0.7,0.6-1.5,1.3-2.2,1.9c-0.5,0.8-0.3,1.7-0.6,2.7c-0.3,0.9-1.4,2.2-2.1,2.7
	c-1.4,1-3.1,1.3-4.6,2.2c-0.9,0.6-1.6,1.7-2.7,2.1c-2,0.7-10.6,0.9-13.1,0.2c-2.5-0.7-5.4-2.7-7.4-4.2c-1.3-1-3.9-5.3-4.5-7
	c-0.2-1.4-0.4-2.9-0.6-4.3c-0.4-1.5-1.1-2.9-1.4-4.5c-0.5-2,0.3-4.5-0.2-6.7c-0.4-1.7-0.5-5.4-0.2-7c0-4.2,0-8.3,0-12.5
	c0-27.4,0-54.9,0-82.3c0-7.5,0-15,0-22.6c0-3.2-0.6-8,0.2-10.9c0.4-1.5,1.2-2.8,1.6-4.3c0.4-1.7,0.1-3.7,0.6-5.3
	c0.4-1.1,1.3-1.9,1.9-2.7c0.9-1.4,1.2-3,2.1-4.3c1-1.5,2.4-2.7,3.4-4.2c0.1-0.4,0.2-0.7,0.3-1.1c0.3-0.5,0.9-1,1.3-1.4
	c1.4-2,2.4-3.7,4.2-5.3c1.2-1.1,3.5-1.6,4.8-2.6c2.2-1.6,3.5-4.1,5.6-5.8c1.2-0.9,2.7-1.1,4-1.9c0.9-0.6,1.9-1.5,3-1.9
	c0.9-0.3,1.5-0.1,2.2-0.5c0.9-0.4,1.4-1.4,2.2-1.8c1.3-0.6,3-0.6,4.2-1.4c0.6-0.4,0.7-1.1,1.4-1.4c1.7-0.3,3.4-0.5,5.1-0.8
	c0.8-0.4,1.5-1.4,2.4-1.8c1.5-0.7,3.5-0.3,5.1-1c1.1-0.4,1.9-1.6,3-1.9c1.5-0.5,3.2,0.1,5-0.3c2.9-0.7,6.3-2.3,7-5.1
	c0.5-1.7,0.4-5.1,0-6.7c0-3.1,0-6.3,0-9.4c0-5.5,0-11,0-16.5c0.5-2.5,0.4-7.7,0-9.8c0-2.1,0-4.3,0-6.4c-0.4-1.9-1.5-3.2-1.9-5.1
	c-0.8-3.2,1.4-5,2.1-6.9c0.2-0.6,0.2-1.7,0.3-2.2c0.1-0.7-0.2-1.8-0.3-2.4c-0.1-1.8-0.2-3.5-0.3-5.3c-0.4-1.6-1.4-2.8-1.8-4.5
	c-0.8-3.4,1.7-6.2,1-8.6c-0.7-2.4-3.8-5.5-5.6-6.9c-1.9-1.4-3.3-3.6-5.1-5c-1.9-1.5-4-2.7-5.9-4.2c-2.1-1.6-3.5-4-5.6-5.6
	c-1.3-0.9-2.7-1.6-4-2.6c-1.5-1.1-2.6-2.8-4.2-3.8c-1-0.7-2-0.9-2.9-1.6c-0.6-0.5-1.1-1.3-1.6-1.9c-0.8-1-2-1.5-3-2.2
	c-0.3-0.3-0.5-0.6-0.8-1c-1.1-0.7-2.2-0.9-3.4-1.6c-1.6-0.9-3-2.6-4.5-3.7c-1.3-0.9-2.9-1.2-4.2-2.1c-1.9-1.3-3.5-3.2-5.4-4.5
	c-0.6-0.4-1.3-0.4-1.9-0.8c-0.8-0.5-1.5-1.3-2.2-1.8c-0.5-0.3-1.1-0.3-1.6-0.6c-1-0.7-2-1.8-3-2.4c-0.4-0.2-0.8-0.1-1.1-0.3
	c-0.8-0.5-1.5-1.5-2.2-2.1c-0.9-0.6-1.9-1.1-2.6-1.9c-1.2-1.4-1.5-3.1-2.6-4.6c-0.7-1-1.8-2.1-2.2-3.4c0-0.3,0-0.6,0-1
	c-0.5-1.5-2-2.9-2.6-4.5c-0.4-1.1-0.1-2.1-0.5-3.2c-0.6-1.6-1.6-3.2-2.1-4.8c-0.1-1.8-0.1-3.5-0.2-5.3c-0.3-2.7-0.6-8.6,0-11.5
	c0.5-0.4,0.5-0.6,1.4-0.6c0.3,0.6,0.8,1.4,1,1.9c0.6,1.7,0.2,3.5,0.8,5.1c0.6,1.6,1.6,3.1,2.1,4.8c0.4,1.4-0.1,2.7,0.3,3.8
	c0.5,1.2,1.5,2.4,2.1,3.5c0.2,1.1,0.4,2.2,0.6,3.4c0.5,0.9,1.5,1.8,2.1,2.7c0.9,1.5,1,3.2,1.9,4.6c2.3,3.4,6.9,7.3,10.6,9.3
	c0.4,0.2,0.8,0.1,1.1,0.3c1,0.7,1.9,1.7,2.9,2.4c1.6,1.1,3.4,1.8,5.1,2.9c1,0.7,2,1.7,3,2.4c1.5,1,3.2,1.4,4.6,2.4
	c2.6,1.7,5.6,3.3,8.2,5.1c2.6,1.9,5.1,4.5,9.4,4.6c0.4-0.4,0.7-0.9,1.1-1.3c-0.1-1.8-0.2-4,0.3-5.4c0.6-1.6,2-2.6,2.6-4.5
	c0.5-1.7-0.3-3.6,1.8-3.7c0.2,0.1,0,0.1,0.3,0.2c1.3,2.9,0.8,9.6,0.8,14.1c0,1.9-0.2,4.2,0.3,5.6c1,2.6,3.2,4.7,4.6,6.9
	c0.8,1.2,1.3,2.2,2.1,3.4c0.5,0.7,1.4,1.2,2.1,1.8c1.6,1.2,2.8,3,4.3,4.2c0.3,0.2,0.6,0.1,0.8,0.3c0.4,0.3,0.6,1,1,1.3
	c1.1,0.9,2,1.7,3.2,2.6c2.4,1.7,4.3,4.8,7.2,5.9c2.2,0.8,4.4-0.2,7,0.3c1,0.2,3.4,0.1,4.6,0c3.9,0,7.9,0,11.8,0
	c5,0,10.8,0.1,14.7,0.2c6.2,0.1,10.2,0.4,12.8-3.2c0.4-0.5,0.4-1.2,0.8-1.8c0.6-0.6,1.2-1.2,1.8-1.8c1.2-1.7,2.2-3.2,3.4-5
	c0.4-0.3,0.7-0.6,1.1-1c1-1.4,2.7-3.4,3.4-5c0.9-2,0.5-5.2,1.4-7.4c0.5-1.2,1.6-1.9,1.9-3.2c0-7.4,0-14.8,0-22.3
	c-0.1-1.6-0.7-6.5,0.2-7.7c0.2-0.2,0.7-0.2,1.1-0.2c0.3,0.4,0.8,0.8,1,1.3c0.8,1.8,0.5,4,1.1,5.9c0.7,2.5,1.5,4.6,2.1,7.4
	c0.3,1.5,0,3.7,0,4.8c0,3,0,7.2,0.5,9.9c0.2,1.1-0.1,2.6,0.2,3.7c0.3,0,0.6,0,1,0c0.5-0.4,1.1-0.4,1.6-0.8c0.5-0.3,0.7-1,1.1-1.4
	c0.7-0.7,1.6-1,2.4-1.6c1.8-1.9,3.6-3.7,5.4-5.6c2.8-1.9,5.6-3.6,8.3-5.6c1.4-1,2.6-2.6,3.7-4c0.4-0.3,0.9-0.6,1.3-1
	c1.1-1.2,2.1-2.3,3.4-3.4c1.4-1.1,2.4-3.1,3.8-4.2c1.4-1,3-1.8,4.5-2.7c0.6-0.4,1.3-0.4,1.9-0.8c0.4-0.4,0.7-0.9,1.1-1.3
	c2.3-1.7,4.5-4.2,6.1-6.6c0.8-1.2,1.4-2.8,1.8-4.3c0.1-0.6,0.1-1.3,0.2-1.9c0.4-1.1,1.4-2.1,1.9-3c0.9-1.7,0.2-4.2,0.8-6.1
	c0.5-1.6,1.8-2.8,2.2-4.6c0-1.1,0-2.2,0-3.4c0-2.7,0-5.7,0.8-7.8C425.2,18.6,426.3,18.3,427.3,17.5z"/>
</svg>
